<mxfile host="app.diagrams.net" modified="2022-09-16T15:12:17.668Z" agent="5.0 (Macintosh; Intel Mac OS X 10_15_7) AppleWebKit/537.36 (KHTML, like Gecko) Chrome/103.0.5060.134 Safari/537.36 OPR/89.0.4447.83" etag="r2kDMZ37lagRDAYBdWrN" version="20.2.3" type="github">
  <diagram id="0pBbwugf5VIioheZSFZj" name="Page-1">
    <mxGraphModel dx="1320" dy="893" grid="1" gridSize="10" guides="1" tooltips="1" connect="1" arrows="1" fold="1" page="1" pageScale="1" pageWidth="827" pageHeight="1169" math="0" shadow="0">
      <root>
        <mxCell id="0" />
        <mxCell id="1" parent="0" />
        <mxCell id="qe2fOgIt19yh0mwi6-gO-1" value="Function" style="whiteSpace=wrap;html=1;fillColor=#dae8fc;strokeColor=#6c8ebf;sketch=1;fontFamily=Comic Sans MS;fontSize=18;" vertex="1" parent="1">
          <mxGeometry x="330" y="150" width="120" height="60" as="geometry" />
        </mxCell>
        <mxCell id="qe2fOgIt19yh0mwi6-gO-2" value="Input" style="text;html=1;strokeColor=none;fillColor=none;align=center;verticalAlign=middle;whiteSpace=wrap;rounded=0;sketch=1;fontFamily=Comic Sans MS;fontSize=18;" vertex="1" parent="1">
          <mxGeometry x="186" y="161" width="60" height="30" as="geometry" />
        </mxCell>
        <mxCell id="qe2fOgIt19yh0mwi6-gO-3" value="Output" style="text;html=1;strokeColor=none;fillColor=none;align=center;verticalAlign=middle;whiteSpace=wrap;rounded=0;sketch=1;fontFamily=Comic Sans MS;fontSize=18;" vertex="1" parent="1">
          <mxGeometry x="539" y="162" width="60" height="30" as="geometry" />
        </mxCell>
        <mxCell id="qe2fOgIt19yh0mwi6-gO-4" value="" style="endArrow=classic;html=1;rounded=0;fontFamily=Comic Sans MS;fontSize=18;strokeWidth=2;" edge="1" parent="1">
          <mxGeometry width="50" height="50" relative="1" as="geometry">
            <mxPoint x="250" y="179.5" as="sourcePoint" />
            <mxPoint x="320" y="179.5" as="targetPoint" />
          </mxGeometry>
        </mxCell>
        <mxCell id="qe2fOgIt19yh0mwi6-gO-5" value="" style="endArrow=classic;html=1;rounded=0;fontFamily=Comic Sans MS;fontSize=18;strokeWidth=2;" edge="1" parent="1">
          <mxGeometry width="50" height="50" relative="1" as="geometry">
            <mxPoint x="460" y="179.5" as="sourcePoint" />
            <mxPoint x="530" y="179.5" as="targetPoint" />
          </mxGeometry>
        </mxCell>
      </root>
    </mxGraphModel>
  </diagram>
</mxfile>
